<mxfile host="app.diagrams.net" modified="2022-12-27T16:34:40.208Z" agent="5.0 (Windows NT 10.0; Win64; x64) AppleWebKit/537.36 (KHTML, like Gecko) Chrome/108.0.0.0 Safari/537.36" etag="xqJF8E-0GciJC9gPYGDh" version="20.7.4" type="github">
  <diagram name="Page-1" id="e7e014a7-5840-1c2e-5031-d8a46d1fe8dd">
    <mxGraphModel dx="2049" dy="1137" grid="1" gridSize="10" guides="1" tooltips="1" connect="1" arrows="1" fold="1" page="1" pageScale="1" pageWidth="827" pageHeight="1169" background="none" math="0" shadow="0">
      <root>
        <mxCell id="0" />
        <mxCell id="1" parent="0" />
        <mxCell id="2" value="Amministratore" style="swimlane;whiteSpace=wrap" parent="1" vertex="1">
          <mxGeometry x="39" y="359" width="250" height="452" as="geometry" />
        </mxCell>
        <mxCell id="5" value="" style="ellipse;shape=startState;fillColor=#000000;strokeColor=#000000;" parent="2" vertex="1">
          <mxGeometry x="110" y="30" width="30" height="29" as="geometry" />
        </mxCell>
        <mxCell id="zan8dTlz7hBke7GvO7Kc-41" value="Preme il bottone &#xa;&quot;Statistiche&quot;" style="strokeColor=#000000;fontSize=9;rounded=1;" parent="2" vertex="1">
          <mxGeometry x="82.5" y="86" width="85" height="35" as="geometry" />
        </mxCell>
        <mxCell id="zan8dTlz7hBke7GvO7Kc-43" value="Seleziona l&#39;intervallo&#xa;di riferimento" style="strokeColor=#000000;fontSize=9;rounded=1;" parent="2" vertex="1">
          <mxGeometry x="145.5" y="272" width="85" height="35" as="geometry" />
        </mxCell>
        <mxCell id="zan8dTlz7hBke7GvO7Kc-44" value="Seleziona la tipologia&#xa;di statistiche" style="strokeColor=#000000;fontSize=9;rounded=1;" parent="2" vertex="1">
          <mxGeometry x="145.5" y="342" width="85" height="35" as="geometry" />
        </mxCell>
        <mxCell id="2OiRX3ioeRB9t0XDPjww-50" value="Cambia schermata" style="strokeColor=#000000;fontSize=9;rounded=1;" parent="2" vertex="1">
          <mxGeometry x="35.5" y="272" width="85" height="35" as="geometry" />
        </mxCell>
        <mxCell id="38" value="" style="ellipse;shape=endState;fillColor=#000000;strokeColor=#080808;" parent="2" vertex="1">
          <mxGeometry x="63" y="332" width="30" height="30" as="geometry" />
        </mxCell>
        <mxCell id="b4pGiNFFtESpf6oO74tl-38" value="" style="shape=line;strokeWidth=6;strokeColor=#ff0000;rotation=0;" parent="2" vertex="1">
          <mxGeometry x="55.5" y="232" width="150" height="15" as="geometry" />
        </mxCell>
        <mxCell id="b4pGiNFFtESpf6oO74tl-46" value="" style="endArrow=classic;html=1;rounded=0;entryX=0.5;entryY=0;entryDx=0;entryDy=0;" parent="2" target="2OiRX3ioeRB9t0XDPjww-50" edge="1">
          <mxGeometry width="50" height="50" relative="1" as="geometry">
            <mxPoint x="85.5" y="242" as="sourcePoint" />
            <mxPoint x="93.5" y="272" as="targetPoint" />
          </mxGeometry>
        </mxCell>
        <mxCell id="b4pGiNFFtESpf6oO74tl-47" value="" style="endArrow=classic;html=1;rounded=0;exitX=0.82;exitY=0.667;exitDx=0;exitDy=0;entryX=0.5;entryY=0;entryDx=0;entryDy=0;exitPerimeter=0;" parent="2" source="b4pGiNFFtESpf6oO74tl-38" target="zan8dTlz7hBke7GvO7Kc-43" edge="1">
          <mxGeometry width="50" height="50" relative="1" as="geometry">
            <mxPoint x="145.5" y="262" as="sourcePoint" />
            <mxPoint x="145.5" y="287" as="targetPoint" />
          </mxGeometry>
        </mxCell>
        <mxCell id="R-aIo1MN2vHifxjaxC9q-42" value="" style="endArrow=open;endFill=1;endSize=12;html=1;rounded=0;exitX=0.5;exitY=1;exitDx=0;exitDy=0;entryX=0.5;entryY=0;entryDx=0;entryDy=0;" edge="1" parent="2" source="5" target="zan8dTlz7hBke7GvO7Kc-41">
          <mxGeometry width="160" relative="1" as="geometry">
            <mxPoint x="410" y="282" as="sourcePoint" />
            <mxPoint x="570" y="282" as="targetPoint" />
          </mxGeometry>
        </mxCell>
        <mxCell id="R-aIo1MN2vHifxjaxC9q-45" value="" style="endArrow=open;endFill=1;endSize=12;html=1;rounded=0;exitX=0.5;exitY=1;exitDx=0;exitDy=0;entryX=0.5;entryY=0;entryDx=0;entryDy=0;" edge="1" parent="2" source="zan8dTlz7hBke7GvO7Kc-43" target="zan8dTlz7hBke7GvO7Kc-44">
          <mxGeometry width="160" relative="1" as="geometry">
            <mxPoint x="410" y="282" as="sourcePoint" />
            <mxPoint x="570" y="282" as="targetPoint" />
          </mxGeometry>
        </mxCell>
        <mxCell id="R-aIo1MN2vHifxjaxC9q-46" value="" style="endArrow=open;endFill=1;endSize=12;html=1;rounded=0;exitX=0.5;exitY=1;exitDx=0;exitDy=0;entryX=0.5;entryY=0;entryDx=0;entryDy=0;" edge="1" parent="2" source="2OiRX3ioeRB9t0XDPjww-50" target="38">
          <mxGeometry width="160" relative="1" as="geometry">
            <mxPoint x="410" y="282" as="sourcePoint" />
            <mxPoint x="570" y="282" as="targetPoint" />
          </mxGeometry>
        </mxCell>
        <mxCell id="3" value="Sistema" style="swimlane;whiteSpace=wrap" parent="1" vertex="1">
          <mxGeometry x="289" y="359" width="250" height="452" as="geometry" />
        </mxCell>
        <mxCell id="zan8dTlz7hBke7GvO7Kc-42" value="Mostra la schermata&#xa;&quot;Statistiche&quot;" style="strokeColor=#000000;fontSize=9;rounded=1;" parent="3" vertex="1">
          <mxGeometry x="82.5" y="86" width="85" height="35" as="geometry" />
        </mxCell>
        <mxCell id="b4pGiNFFtESpf6oO74tl-40" value="Mostra i dati&#xa;d&#39;interesse" style="strokeColor=#000000;fontSize=9;rounded=1;" parent="3" vertex="1">
          <mxGeometry x="82.5" y="154" width="85" height="35" as="geometry" />
        </mxCell>
        <mxCell id="4" value="API Interno" style="swimlane;whiteSpace=wrap" parent="1" vertex="1">
          <mxGeometry x="539" y="359" width="250" height="452" as="geometry" />
        </mxCell>
        <mxCell id="zan8dTlz7hBke7GvO7Kc-45" value="Cerca nel database&#xa;i dati di interesse" style="strokeColor=#000000;fontSize=9;rounded=1;" parent="4" vertex="1">
          <mxGeometry x="82.5" y="342" width="85" height="35" as="geometry" />
        </mxCell>
        <mxCell id="b4pGiNFFtESpf6oO74tl-43" value="Cerca nel database&#xa;Â i dati&#xa;del caso base" style="strokeColor=#000000;fontSize=9;rounded=1;" parent="4" vertex="1">
          <mxGeometry x="82.5" y="86" width="85" height="35" as="geometry" />
        </mxCell>
        <mxCell id="R-aIo1MN2vHifxjaxC9q-38" value="" style="endArrow=open;endFill=1;endSize=12;html=1;rounded=0;exitX=1;exitY=0.5;exitDx=0;exitDy=0;entryX=0;entryY=0.5;entryDx=0;entryDy=0;" edge="1" parent="1" source="zan8dTlz7hBke7GvO7Kc-42" target="b4pGiNFFtESpf6oO74tl-43">
          <mxGeometry width="160" relative="1" as="geometry">
            <mxPoint x="461.5" y="462.15999999999997" as="sourcePoint" />
            <mxPoint x="599" y="461" as="targetPoint" />
          </mxGeometry>
        </mxCell>
        <mxCell id="R-aIo1MN2vHifxjaxC9q-39" value="" style="endArrow=open;endFill=1;endSize=12;html=1;rounded=0;exitX=0.567;exitY=0.978;exitDx=0;exitDy=0;exitPerimeter=0;entryX=1;entryY=0.5;entryDx=0;entryDy=0;" edge="1" parent="1" source="b4pGiNFFtESpf6oO74tl-43" target="b4pGiNFFtESpf6oO74tl-40">
          <mxGeometry width="160" relative="1" as="geometry">
            <mxPoint x="449" y="641" as="sourcePoint" />
            <mxPoint x="609" y="641" as="targetPoint" />
            <Array as="points">
              <mxPoint x="670" y="531" />
            </Array>
          </mxGeometry>
        </mxCell>
        <mxCell id="R-aIo1MN2vHifxjaxC9q-40" value="" style="endArrow=none;html=1;rounded=0;entryX=0.567;entryY=-0.07;entryDx=0;entryDy=0;entryPerimeter=0;" edge="1" parent="1" target="zan8dTlz7hBke7GvO7Kc-45">
          <mxGeometry width="50" height="50" relative="1" as="geometry">
            <mxPoint x="670" y="531" as="sourcePoint" />
            <mxPoint x="559" y="611" as="targetPoint" />
          </mxGeometry>
        </mxCell>
        <mxCell id="R-aIo1MN2vHifxjaxC9q-41" value="" style="endArrow=open;endFill=1;endSize=12;html=1;rounded=0;exitX=0.5;exitY=1;exitDx=0;exitDy=0;" edge="1" parent="1" source="b4pGiNFFtESpf6oO74tl-40" target="b4pGiNFFtESpf6oO74tl-38">
          <mxGeometry width="160" relative="1" as="geometry">
            <mxPoint x="449" y="641" as="sourcePoint" />
            <mxPoint x="159" y="581" as="targetPoint" />
            <Array as="points">
              <mxPoint x="414" y="561" />
              <mxPoint x="169" y="561" />
            </Array>
          </mxGeometry>
        </mxCell>
        <mxCell id="R-aIo1MN2vHifxjaxC9q-43" value="" style="endArrow=open;endFill=1;endSize=12;html=1;rounded=0;exitX=1;exitY=0.5;exitDx=0;exitDy=0;entryX=0;entryY=0.5;entryDx=0;entryDy=0;" edge="1" parent="1" source="zan8dTlz7hBke7GvO7Kc-41" target="zan8dTlz7hBke7GvO7Kc-42">
          <mxGeometry width="160" relative="1" as="geometry">
            <mxPoint x="449" y="641" as="sourcePoint" />
            <mxPoint x="609" y="641" as="targetPoint" />
          </mxGeometry>
        </mxCell>
        <mxCell id="R-aIo1MN2vHifxjaxC9q-47" value="" style="endArrow=open;endFill=1;endSize=12;html=1;rounded=0;exitX=1;exitY=0.5;exitDx=0;exitDy=0;entryX=0;entryY=0.5;entryDx=0;entryDy=0;" edge="1" parent="1" source="zan8dTlz7hBke7GvO7Kc-44" target="zan8dTlz7hBke7GvO7Kc-45">
          <mxGeometry width="160" relative="1" as="geometry">
            <mxPoint x="449" y="641" as="sourcePoint" />
            <mxPoint x="609" y="641" as="targetPoint" />
          </mxGeometry>
        </mxCell>
      </root>
    </mxGraphModel>
  </diagram>
</mxfile>
